solid Teil1
   facet normal -0.000000e+00 -1.000000e+00 -0.000000e+00
      outer loop
         vertex 4.062175e+01 0.000000e+00 3.000000e+01
         vertex 0.000000e+00 0.000000e+00 3.000000e+01
         vertex 4.062175e+01 0.000000e+00 0.000000e+00
      endloop
   endfacet
   facet normal 0.000000e+00 -1.000000e+00 0.000000e+00
      outer loop
         vertex 4.062175e+01 0.000000e+00 0.000000e+00
         vertex 0.000000e+00 0.000000e+00 3.000000e+01
         vertex 0.000000e+00 0.000000e+00 0.000000e+00
      endloop
   endfacet
   facet normal 1.000000e+00 0.000000e+00 0.000000e+00
      outer loop
         vertex 4.062175e+01 9.521853e+00 3.000000e+01
         vertex 4.062175e+01 0.000000e+00 3.000000e+01
         vertex 4.062175e+01 9.521853e+00 0.000000e+00
      endloop
   endfacet
   facet normal 1.000000e+00 0.000000e+00 0.000000e+00
      outer loop
         vertex 4.062175e+01 9.521853e+00 0.000000e+00
         vertex 4.062175e+01 0.000000e+00 3.000000e+01
         vertex 4.062175e+01 0.000000e+00 0.000000e+00
      endloop
   endfacet
   facet normal -0.000000e+00 1.000000e+00 0.000000e+00
      outer loop
         vertex 1.045138e+01 9.521853e+00 3.000000e+01
         vertex 4.062175e+01 9.521853e+00 3.000000e+01
         vertex 1.045138e+01 9.521853e+00 0.000000e+00
      endloop
   endfacet
   facet normal 0.000000e+00 1.000000e+00 0.000000e+00
      outer loop
         vertex 1.045138e+01 9.521853e+00 0.000000e+00
         vertex 4.062175e+01 9.521853e+00 3.000000e+01
         vertex 4.062175e+01 9.521853e+00 0.000000e+00
      endloop
   endfacet
   facet normal 1.000000e+00 0.000000e+00 0.000000e+00
      outer loop
         vertex 1.045138e+01 3.049133e+01 3.000000e+01
         vertex 1.045138e+01 9.521853e+00 3.000000e+01
         vertex 1.045138e+01 3.049133e+01 0.000000e+00
      endloop
   endfacet
   facet normal 1.000000e+00 0.000000e+00 0.000000e+00
      outer loop
         vertex 1.045138e+01 3.049133e+01 0.000000e+00
         vertex 1.045138e+01 9.521853e+00 3.000000e+01
         vertex 1.045138e+01 9.521853e+00 0.000000e+00
      endloop
   endfacet
   facet normal -0.000000e+00 1.000000e+00 0.000000e+00
      outer loop
         vertex 0.000000e+00 3.049133e+01 3.000000e+01
         vertex 1.045138e+01 3.049133e+01 3.000000e+01
         vertex 0.000000e+00 3.049133e+01 0.000000e+00
      endloop
   endfacet
   facet normal 0.000000e+00 1.000000e+00 0.000000e+00
      outer loop
         vertex 0.000000e+00 3.049133e+01 0.000000e+00
         vertex 1.045138e+01 3.049133e+01 3.000000e+01
         vertex 1.045138e+01 3.049133e+01 0.000000e+00
      endloop
   endfacet
   facet normal -1.000000e+00 0.000000e+00 0.000000e+00
      outer loop
         vertex 0.000000e+00 0.000000e+00 3.000000e+01
         vertex 0.000000e+00 3.049133e+01 3.000000e+01
         vertex 0.000000e+00 0.000000e+00 0.000000e+00
      endloop
   endfacet
   facet normal -1.000000e+00 0.000000e+00 0.000000e+00
      outer loop
         vertex 0.000000e+00 0.000000e+00 0.000000e+00
         vertex 0.000000e+00 3.049133e+01 3.000000e+01
         vertex 0.000000e+00 3.049133e+01 0.000000e+00
      endloop
   endfacet
   facet normal 0.000000e+00 0.000000e+00 1.000000e+00
      outer loop
         vertex 1.045138e+01 3.049133e+01 3.000000e+01
         vertex 0.000000e+00 3.049133e+01 3.000000e+01
         vertex 1.045138e+01 9.521853e+00 3.000000e+01
      endloop
   endfacet
   facet normal 0.000000e+00 0.000000e+00 1.000000e+00
      outer loop
         vertex 1.045138e+01 9.521853e+00 3.000000e+01
         vertex 0.000000e+00 3.049133e+01 3.000000e+01
         vertex 0.000000e+00 0.000000e+00 3.000000e+01
      endloop
   endfacet
   facet normal -0.000000e+00 0.000000e+00 1.000000e+00
      outer loop
         vertex 1.045138e+01 9.521853e+00 3.000000e+01
         vertex 0.000000e+00 0.000000e+00 3.000000e+01
         vertex 4.062175e+01 9.521853e+00 3.000000e+01
      endloop
   endfacet
   facet normal 0.000000e+00 0.000000e+00 1.000000e+00
      outer loop
         vertex 4.062175e+01 9.521853e+00 3.000000e+01
         vertex 0.000000e+00 0.000000e+00 3.000000e+01
         vertex 4.062175e+01 0.000000e+00 3.000000e+01
      endloop
   endfacet
   facet normal -0.000000e+00 -0.000000e+00 -1.000000e+00
      outer loop
         vertex 4.062175e+01 9.521853e+00 0.000000e+00
         vertex 4.062175e+01 0.000000e+00 0.000000e+00
         vertex 1.045138e+01 9.521853e+00 0.000000e+00
      endloop
   endfacet
   facet normal 0.000000e+00 -0.000000e+00 -1.000000e+00
      outer loop
         vertex 1.045138e+01 9.521853e+00 0.000000e+00
         vertex 4.062175e+01 0.000000e+00 0.000000e+00
         vertex 0.000000e+00 0.000000e+00 0.000000e+00
      endloop
   endfacet
   facet normal -0.000000e+00 0.000000e+00 -1.000000e+00
      outer loop
         vertex 1.045138e+01 9.521853e+00 0.000000e+00
         vertex 0.000000e+00 0.000000e+00 0.000000e+00
         vertex 1.045138e+01 3.049133e+01 0.000000e+00
      endloop
   endfacet
   facet normal -0.000000e+00 0.000000e+00 -1.000000e+00
      outer loop
         vertex 1.045138e+01 3.049133e+01 0.000000e+00
         vertex 0.000000e+00 0.000000e+00 0.000000e+00
         vertex 0.000000e+00 3.049133e+01 0.000000e+00
      endloop
   endfacet
endsolid