# Blender 4.0.0
# www.blender.org
mtllib Teil_4large.mtl
o Teil_4
v -0.227206 -0.227206 0.200000
v -0.227206 -0.072794 0.200000
v -0.300000 -0.300000 0.000000
v -0.300000 0.000000 0.000000
v -0.072794 -0.227206 0.200000
v 0.000000 -0.300000 0.000000
v -0.072794 -0.072794 0.200000
v 0.000000 0.000000 0.000000
v -0.143054 -0.110608 0.200000
v -0.136319 -0.112412 0.200000
v -0.130000 -0.115359 0.200000
v -0.184641 -0.170000 0.200000
v -0.187588 -0.163681 0.200000
v -0.187588 -0.136319 0.200000
v -0.184641 -0.130000 0.200000
v -0.130000 -0.184641 0.200000
v -0.136319 -0.187588 0.200000
v -0.189392 -0.156946 0.200000
v -0.190000 -0.150000 0.200000
v -0.189392 -0.143054 0.200000
v -0.180642 -0.124288 0.200000
v -0.175711 -0.119358 0.200000
v -0.170000 -0.115359 0.200000
v -0.163681 -0.112412 0.200000
v -0.156946 -0.110608 0.200000
v -0.150000 -0.110000 0.200000
v -0.124288 -0.119358 0.200000
v -0.119358 -0.124288 0.200000
v -0.115359 -0.130000 0.200000
v -0.143054 -0.189392 0.200000
v -0.150000 -0.190000 0.200000
v -0.112412 -0.136319 0.200000
v -0.110608 -0.143054 0.200000
v -0.110000 -0.150000 0.200000
v -0.110608 -0.156946 0.200000
v -0.112412 -0.163681 0.200000
v -0.115359 -0.170000 0.200000
v -0.156946 -0.189392 0.200000
v -0.163681 -0.187588 0.200000
v -0.170000 -0.184641 0.200000
v -0.119358 -0.175711 0.200000
v -0.124288 -0.180642 0.200000
v -0.175711 -0.180642 0.200000
v -0.180642 -0.175711 0.200000
v -0.156946 -0.110608 0.000000
v -0.150000 -0.110000 0.000000
v -0.143054 -0.110608 0.000000
v -0.112412 -0.136319 0.000000
v -0.115359 -0.130000 0.000000
v -0.119358 -0.124288 0.000000
v -0.124288 -0.119358 0.000000
v -0.163681 -0.112412 0.000000
v -0.170000 -0.115359 0.000000
v -0.175711 -0.119358 0.000000
v -0.130000 -0.115359 0.000000
v -0.136319 -0.112412 0.000000
v -0.180642 -0.124288 0.000000
v -0.184641 -0.130000 0.000000
v -0.187588 -0.136319 0.000000
v -0.189392 -0.143054 0.000000
v -0.190000 -0.150000 0.000000
v -0.189392 -0.156946 0.000000
v -0.187588 -0.163681 0.000000
v -0.184641 -0.170000 0.000000
v -0.180642 -0.175711 0.000000
v -0.175711 -0.180642 0.000000
v -0.143054 -0.189392 0.000000
v -0.150000 -0.190000 0.000000
v -0.156946 -0.189392 0.000000
v -0.136319 -0.187588 0.000000
v -0.130000 -0.184641 0.000000
v -0.124288 -0.180642 0.000000
v -0.170000 -0.184641 0.000000
v -0.163681 -0.187588 0.000000
v -0.119358 -0.175711 0.000000
v -0.115359 -0.170000 0.000000
v -0.112412 -0.163681 0.000000
v -0.110608 -0.156946 0.000000
v -0.110000 -0.150000 0.000000
v -0.110608 -0.143054 0.000000
vn -0.4670 -0.4670 0.7508
vn -0.4671 0.4671 0.7508
vn -0.6478 -0.6478 -0.4008
vn -0.6478 0.6478 -0.4009
vn 0.4670 -0.4670 0.7508
vn 0.6478 -0.6478 -0.4009
vn 0.4671 0.4671 0.7508
vn 0.6478 0.6478 -0.4008
vn -0.1192 -0.6759 0.7273
vn -0.2347 -0.6450 0.7273
vn -0.3432 -0.5944 0.7273
vn 0.5944 0.3432 0.7273
vn 0.6450 0.2347 0.7273
vn 0.6450 -0.2348 0.7273
vn 0.5944 -0.3432 0.7273
vn -0.3432 0.5944 0.7273
vn -0.2347 0.6450 0.7273
vn 0.6759 0.1192 0.7273
vn 0.6864 -0.0000 0.7273
vn 0.6759 -0.1192 0.7273
vn 0.5258 -0.4412 0.7273
vn 0.4412 -0.5258 0.7273
vn 0.3432 -0.5944 0.7273
vn 0.2347 -0.6450 0.7273
vn 0.1192 -0.6759 0.7273
vn -0.0000 -0.6864 0.7273
vn -0.4412 -0.5258 0.7273
vn -0.5258 -0.4412 0.7273
vn -0.5944 -0.3432 0.7273
vn -0.1192 0.6759 0.7273
vn -0.0000 0.6864 0.7273
vn -0.6450 -0.2347 0.7273
vn -0.6759 -0.1192 0.7273
vn -0.6864 -0.0000 0.7273
vn -0.6759 0.1192 0.7273
vn -0.6450 0.2347 0.7273
vn -0.5944 0.3432 0.7273
vn 0.1192 0.6759 0.7273
vn 0.2347 0.6450 0.7273
vn 0.3432 0.5944 0.7273
vn -0.5258 0.4412 0.7273
vn -0.4412 0.5258 0.7273
vn 0.4412 0.5258 0.7273
vn 0.5258 0.4412 0.7273
vn 0.1192 -0.6759 -0.7273
vn -0.0000 -0.6864 -0.7273
vn -0.1192 -0.6759 -0.7273
vn -0.6450 -0.2347 -0.7273
vn -0.5944 -0.3432 -0.7273
vn -0.5258 -0.4412 -0.7273
vn -0.4412 -0.5258 -0.7273
vn 0.2347 -0.6450 -0.7273
vn 0.3432 -0.5944 -0.7273
vn 0.4412 -0.5258 -0.7273
vn -0.3432 -0.5944 -0.7273
vn -0.2347 -0.6450 -0.7273
vn 0.5258 -0.4412 -0.7273
vn 0.5944 -0.3432 -0.7273
vn 0.6450 -0.2347 -0.7273
vn 0.6759 -0.1192 -0.7273
vn 0.6864 -0.0000 -0.7273
vn 0.6759 0.1192 -0.7273
vn 0.6450 0.2348 -0.7273
vn 0.5944 0.3432 -0.7273
vn 0.5258 0.4412 -0.7273
vn 0.4412 0.5258 -0.7273
vn -0.1192 0.6759 -0.7273
vn -0.0000 0.6864 -0.7273
vn 0.1192 0.6759 -0.7273
vn -0.2347 0.6450 -0.7273
vn -0.3432 0.5944 -0.7273
vn -0.4412 0.5258 -0.7273
vn 0.3432 0.5944 -0.7273
vn 0.2347 0.6450 -0.7273
vn -0.5258 0.4412 -0.7273
vn -0.5944 0.3432 -0.7273
vn -0.6450 0.2347 -0.7273
vn -0.6759 0.1192 -0.7273
vn -0.6864 -0.0000 -0.7273
vn -0.6759 -0.1192 -0.7273
s 1
f 1//1 2//2 3//3
f 3//3 2//2 4//4
f 5//5 1//1 6//6
f 6//6 1//1 3//3
f 7//7 5//5 8//8
f 8//8 5//5 6//6
f 2//2 7//7 4//4
f 4//4 7//7 8//8
f 9//9 10//10 7//7
f 7//7 10//10 11//11
f 12//12 13//13 1//1
f 2//2 14//14 15//15
f 16//16 17//17 5//5
f 13//13 18//18 1//1
f 1//1 18//18 19//19
f 1//1 19//19 2//2
f 2//2 19//19 20//20
f 2//2 20//20 14//14
f 15//15 21//21 2//2
f 2//2 21//21 22//22
f 2//2 22//22 23//23
f 23//23 24//24 2//2
f 2//2 24//24 25//25
f 2//2 25//25 7//7
f 7//7 25//25 26//26
f 7//7 26//26 9//9
f 11//11 27//27 7//7
f 7//7 27//27 28//28
f 7//7 28//28 29//29
f 17//17 30//30 5//5
f 5//5 30//30 31//31
f 5//5 31//31 1//1
f 29//29 32//32 7//7
f 7//7 32//32 33//33
f 7//7 33//33 5//5
f 5//5 33//33 34//34
f 34//34 35//35 5//5
f 5//5 35//35 36//36
f 5//5 36//36 37//37
f 31//31 38//38 1//1
f 1//1 38//38 39//39
f 1//1 39//39 40//40
f 37//37 41//41 5//5
f 5//5 41//41 42//42
f 5//5 42//42 16//16
f 40//40 43//43 1//1
f 1//1 43//43 44//44
f 1//1 44//44 12//12
f 45//45 4//4 46//46
f 46//46 4//4 8//8
f 46//46 8//8 47//47
f 48//48 49//49 8//8
f 8//8 49//49 50//50
f 8//8 50//50 51//51
f 45//45 52//52 4//4
f 4//4 52//52 53//53
f 4//4 53//53 54//54
f 51//51 55//55 8//8
f 8//8 55//55 56//56
f 8//8 56//56 47//47
f 54//54 57//57 4//4
f 4//4 57//57 58//58
f 4//4 58//58 59//59
f 59//59 60//60 4//4
f 4//4 60//60 61//61
f 4//4 61//61 3//3
f 3//3 61//61 62//62
f 3//3 62//62 63//63
f 63//63 64//64 3//3
f 3//3 64//64 65//65
f 3//3 65//65 66//66
f 67//67 6//6 68//68
f 68//68 6//6 3//3
f 68//68 3//3 69//69
f 67//67 70//70 6//6
f 6//6 70//70 71//71
f 6//6 71//71 72//72
f 66//66 73//73 3//3
f 3//3 73//73 74//74
f 3//3 74//74 69//69
f 72//72 75//75 6//6
f 6//6 75//75 76//76
f 6//6 76//76 77//77
f 77//77 78//78 6//6
f 6//6 78//78 79//79
f 6//6 79//79 8//8
f 8//8 79//79 80//80
f 8//8 80//80 48//48
f 61//61 19//19 62//62
f 62//62 19//19 18//18
f 62//62 18//18 63//63
f 63//63 18//18 13//13
f 63//63 13//13 64//64
f 64//64 13//13 12//12
f 64//64 12//12 65//65
f 65//65 12//12 44//44
f 65//65 44//44 66//66
f 66//66 44//44 43//43
f 66//66 43//43 73//73
f 73//73 43//43 40//40
f 73//73 40//40 74//74
f 74//74 40//40 39//39
f 74//74 39//39 69//69
f 69//69 39//39 38//38
f 69//69 38//38 68//68
f 68//68 38//38 31//31
f 68//68 31//31 67//67
f 67//67 31//31 30//30
f 67//67 30//30 70//70
f 70//70 30//30 17//17
f 70//70 17//17 71//71
f 71//71 17//17 16//16
f 71//71 16//16 72//72
f 72//72 16//16 42//42
f 72//72 42//42 75//75
f 75//75 42//42 41//41
f 75//75 41//41 76//76
f 76//76 41//41 37//37
f 76//76 37//37 77//77
f 77//77 37//37 36//36
f 77//77 36//36 78//78
f 78//78 36//36 35//35
f 78//78 35//35 79//79
f 79//79 35//35 34//34
f 79//79 34//34 80//80
f 80//80 34//34 33//33
f 80//80 33//33 48//48
f 48//48 33//33 32//32
f 48//48 32//32 49//49
f 49//49 32//32 29//29
f 49//49 29//29 50//50
f 50//50 29//29 28//28
f 50//50 28//28 51//51
f 51//51 28//28 27//27
f 51//51 27//27 55//55
f 55//55 27//27 11//11
f 55//55 11//11 56//56
f 56//56 11//11 10//10
f 56//56 10//10 47//47
f 47//47 10//10 9//9
f 47//47 9//9 46//46
f 46//46 9//9 26//26
f 46//46 26//26 45//45
f 45//45 26//26 25//25
f 45//45 25//25 52//52
f 52//52 25//25 24//24
f 52//52 24//24 53//53
f 53//53 24//24 23//23
f 53//53 23//23 54//54
f 54//54 23//23 22//22
f 54//54 22//22 57//57
f 57//57 22//22 21//21
f 57//57 21//21 58//58
f 58//58 21//21 15//15
f 58//58 15//15 59//59
f 59//59 15//15 14//14
f 59//59 14//14 60//60
f 60//60 14//14 20//20
f 60//60 20//20 61//61
f 61//61 20//20 19//19
