# Blender 4.0.0
# www.blender.org
mtllib Teil_1.mtl
o Teil_1
v -0.040622 0.000000 0.030000
v 0.000000 0.000000 0.030000
v -0.040622 0.000000 0.000000
v 0.000000 0.000000 0.000000
v -0.040622 -0.009522 0.030000
v -0.040622 -0.009522 0.000000
v -0.010451 -0.009522 0.030000
v -0.010451 -0.009522 0.000000
v -0.010451 -0.030491 0.030000
v -0.010451 -0.030491 0.000000
v 0.000000 -0.030491 0.030000
v 0.000000 -0.030491 0.000000
vn -0.5774 0.5774 0.5774
vn 0.5774 0.5774 0.5774
vn -0.5774 0.5774 -0.5774
vn 0.5774 0.5774 -0.5774
vn -0.5774 -0.5774 0.5774
vn -0.5774 -0.5774 -0.5774
vn -0.3015 -0.3015 0.9045
vn -0.3015 -0.3015 -0.9045
vn 0.5774 -0.5774 0.5774
vn 0.5774 -0.5774 -0.5774
s 1
f 1//1 2//2 3//3
f 3//3 2//2 4//4
f 5//5 1//1 6//6
f 6//6 1//1 3//3
f 7//7 5//5 8//8
f 8//8 5//5 6//6
f 9//5 7//7 10//6
f 10//6 7//7 8//8
f 11//9 9//5 12//10
f 12//10 9//5 10//6
f 2//2 11//9 4//4
f 4//4 11//9 12//10
f 9//5 11//9 7//7
f 7//7 11//9 2//2
f 7//7 2//2 5//5
f 5//5 2//2 1//1
f 6//6 3//3 8//8
f 8//8 3//3 4//4
f 8//8 4//4 10//6
f 10//6 4//4 12//10
