solid Teil3
   facet normal 0.000000e+00 0.000000e+00 1.000000e+00
      outer loop
         vertex 1.114040e+01 1.000000e+01 3.603577e+01
         vertex 0.000000e+00 1.000000e+01 3.603577e+01
         vertex 1.114040e+01 0.000000e+00 3.603577e+01
      endloop
   endfacet
   facet normal 0.000000e+00 0.000000e+00 1.000000e+00
      outer loop
         vertex 1.114040e+01 0.000000e+00 3.603577e+01
         vertex 0.000000e+00 1.000000e+01 3.603577e+01
         vertex 0.000000e+00 0.000000e+00 3.603577e+01
      endloop
   endfacet
   facet normal 1.000000e+00 0.000000e+00 -0.000000e+00
      outer loop
         vertex 1.114040e+01 1.000000e+01 2.205344e+01
         vertex 1.114040e+01 1.000000e+01 3.603577e+01
         vertex 1.114040e+01 0.000000e+00 2.205344e+01
      endloop
   endfacet
   facet normal 1.000000e+00 0.000000e+00 0.000000e+00
      outer loop
         vertex 1.114040e+01 0.000000e+00 2.205344e+01
         vertex 1.114040e+01 1.000000e+01 3.603577e+01
         vertex 1.114040e+01 0.000000e+00 3.603577e+01
      endloop
   endfacet
   facet normal 0.000000e+00 0.000000e+00 1.000000e+00
      outer loop
         vertex 3.410325e+01 1.000000e+01 2.205344e+01
         vertex 1.114040e+01 1.000000e+01 2.205344e+01
         vertex 3.410325e+01 0.000000e+00 2.205344e+01
      endloop
   endfacet
   facet normal 0.000000e+00 0.000000e+00 1.000000e+00
      outer loop
         vertex 3.410325e+01 0.000000e+00 2.205344e+01
         vertex 1.114040e+01 1.000000e+01 2.205344e+01
         vertex 1.114040e+01 0.000000e+00 2.205344e+01
      endloop
   endfacet
   facet normal 1.000000e+00 0.000000e+00 -0.000000e+00
      outer loop
         vertex 3.410325e+01 1.000000e+01 1.045833e+01
         vertex 3.410325e+01 1.000000e+01 2.205344e+01
         vertex 3.410325e+01 0.000000e+00 1.045833e+01
      endloop
   endfacet
   facet normal 1.000000e+00 0.000000e+00 0.000000e+00
      outer loop
         vertex 3.410325e+01 0.000000e+00 1.045833e+01
         vertex 3.410325e+01 1.000000e+01 2.205344e+01
         vertex 3.410325e+01 0.000000e+00 2.205344e+01
      endloop
   endfacet
   facet normal 0.000000e+00 0.000000e+00 -1.000000e+00
      outer loop
         vertex 1.114040e+01 1.000000e+01 1.045833e+01
         vertex 3.410325e+01 1.000000e+01 1.045833e+01
         vertex 1.114040e+01 0.000000e+00 1.045833e+01
      endloop
   endfacet
   facet normal 0.000000e+00 0.000000e+00 -1.000000e+00
      outer loop
         vertex 1.114040e+01 0.000000e+00 1.045833e+01
         vertex 3.410325e+01 1.000000e+01 1.045833e+01
         vertex 3.410325e+01 0.000000e+00 1.045833e+01
      endloop
   endfacet
   facet normal 1.000000e+00 0.000000e+00 -0.000000e+00
      outer loop
         vertex 1.114040e+01 1.000000e+01 0.000000e+00
         vertex 1.114040e+01 1.000000e+01 1.045833e+01
         vertex 1.114040e+01 0.000000e+00 0.000000e+00
      endloop
   endfacet
   facet normal 1.000000e+00 0.000000e+00 0.000000e+00
      outer loop
         vertex 1.114040e+01 0.000000e+00 0.000000e+00
         vertex 1.114040e+01 1.000000e+01 1.045833e+01
         vertex 1.114040e+01 0.000000e+00 1.045833e+01
      endloop
   endfacet
   facet normal 0.000000e+00 0.000000e+00 -1.000000e+00
      outer loop
         vertex 0.000000e+00 1.000000e+01 0.000000e+00
         vertex 1.114040e+01 1.000000e+01 0.000000e+00
         vertex 0.000000e+00 0.000000e+00 0.000000e+00
      endloop
   endfacet
   facet normal 0.000000e+00 0.000000e+00 -1.000000e+00
      outer loop
         vertex 0.000000e+00 0.000000e+00 0.000000e+00
         vertex 1.114040e+01 1.000000e+01 0.000000e+00
         vertex 1.114040e+01 0.000000e+00 0.000000e+00
      endloop
   endfacet
   facet normal -1.000000e+00 -0.000000e+00 -0.000000e+00
      outer loop
         vertex 0.000000e+00 1.000000e+01 3.603577e+01
         vertex 0.000000e+00 1.000000e+01 0.000000e+00
         vertex 0.000000e+00 0.000000e+00 3.603577e+01
      endloop
   endfacet
   facet normal -1.000000e+00 0.000000e+00 0.000000e+00
      outer loop
         vertex 0.000000e+00 0.000000e+00 3.603577e+01
         vertex 0.000000e+00 1.000000e+01 0.000000e+00
         vertex 0.000000e+00 0.000000e+00 0.000000e+00
      endloop
   endfacet
   facet normal -0.000000e+00 1.000000e+00 0.000000e+00
      outer loop
         vertex 0.000000e+00 1.000000e+01 3.603577e+01
         vertex 1.114040e+01 1.000000e+01 3.603577e+01
         vertex 0.000000e+00 1.000000e+01 0.000000e+00
      endloop
   endfacet
   facet normal 0.000000e+00 1.000000e+00 0.000000e+00
      outer loop
         vertex 0.000000e+00 1.000000e+01 0.000000e+00
         vertex 1.114040e+01 1.000000e+01 3.603577e+01
         vertex 1.114040e+01 1.000000e+01 2.205344e+01
      endloop
   endfacet
   facet normal 0.000000e+00 1.000000e+00 -0.000000e+00
      outer loop
         vertex 1.114040e+01 1.000000e+01 0.000000e+00
         vertex 0.000000e+00 1.000000e+01 0.000000e+00
         vertex 1.114040e+01 1.000000e+01 1.045833e+01
      endloop
   endfacet
   facet normal 0.000000e+00 1.000000e+00 -0.000000e+00
      outer loop
         vertex 1.114040e+01 1.000000e+01 1.045833e+01
         vertex 0.000000e+00 1.000000e+01 0.000000e+00
         vertex 1.114040e+01 1.000000e+01 2.205344e+01
      endloop
   endfacet
   facet normal 0.000000e+00 1.000000e+00 0.000000e+00
      outer loop
         vertex 1.114040e+01 1.000000e+01 1.045833e+01
         vertex 1.114040e+01 1.000000e+01 2.205344e+01
         vertex 3.410325e+01 1.000000e+01 1.045833e+01
      endloop
   endfacet
   facet normal 0.000000e+00 1.000000e+00 -0.000000e+00
      outer loop
         vertex 3.410325e+01 1.000000e+01 1.045833e+01
         vertex 1.114040e+01 1.000000e+01 2.205344e+01
         vertex 3.410325e+01 1.000000e+01 2.205344e+01
      endloop
   endfacet
   facet normal 0.000000e+00 -1.000000e+00 0.000000e+00
      outer loop
         vertex 0.000000e+00 0.000000e+00 0.000000e+00
         vertex 1.114040e+01 0.000000e+00 0.000000e+00
         vertex 0.000000e+00 0.000000e+00 3.603577e+01
      endloop
   endfacet
   facet normal 0.000000e+00 -1.000000e+00 0.000000e+00
      outer loop
         vertex 0.000000e+00 0.000000e+00 3.603577e+01
         vertex 1.114040e+01 0.000000e+00 0.000000e+00
         vertex 1.114040e+01 0.000000e+00 1.045833e+01
      endloop
   endfacet
   facet normal -0.000000e+00 -1.000000e+00 -0.000000e+00
      outer loop
         vertex 1.114040e+01 0.000000e+00 3.603577e+01
         vertex 0.000000e+00 0.000000e+00 3.603577e+01
         vertex 1.114040e+01 0.000000e+00 2.205344e+01
      endloop
   endfacet
   facet normal -0.000000e+00 -1.000000e+00 -0.000000e+00
      outer loop
         vertex 1.114040e+01 0.000000e+00 2.205344e+01
         vertex 0.000000e+00 0.000000e+00 3.603577e+01
         vertex 1.114040e+01 0.000000e+00 1.045833e+01
      endloop
   endfacet
   facet normal 0.000000e+00 -1.000000e+00 0.000000e+00
      outer loop
         vertex 1.114040e+01 0.000000e+00 2.205344e+01
         vertex 1.114040e+01 0.000000e+00 1.045833e+01
         vertex 3.410325e+01 0.000000e+00 2.205344e+01
      endloop
   endfacet
   facet normal 0.000000e+00 -1.000000e+00 -0.000000e+00
      outer loop
         vertex 3.410325e+01 0.000000e+00 2.205344e+01
         vertex 1.114040e+01 0.000000e+00 1.045833e+01
         vertex 3.410325e+01 0.000000e+00 1.045833e+01
      endloop
   endfacet
endsolid