# Blender 4.0.0
# www.blender.org
mtllib Teil_5.mtl
o Teil_5
v 0.000000 0.000000 0.006000
v 0.000000 -0.020000 0.006000
v 0.000000 0.000000 0.000000
v 0.000000 -0.020000 0.000000
v -0.040000 0.000000 0.006000
v -0.040000 0.000000 0.000000
v -0.040000 -0.020000 0.006000
v -0.040000 -0.020000 0.000000
v -0.002037 -0.004531 0.000000
v -0.002147 -0.004073 0.000000
v -0.004073 -0.002147 0.000000
v -0.004531 -0.002037 0.000000
v -0.002327 -0.003638 0.000000
v -0.002573 -0.003237 0.000000
v -0.002879 -0.002879 0.000000
v -0.002327 -0.016362 0.000000
v -0.002147 -0.015927 0.000000
v -0.003237 -0.002573 0.000000
v -0.003638 -0.002327 0.000000
v -0.015927 -0.002147 0.000000
v -0.016362 -0.002327 0.000000
v -0.016763 -0.002573 0.000000
v -0.017121 -0.002879 0.000000
v -0.002037 -0.015469 0.000000
v -0.002000 -0.015000 0.000000
v -0.002000 -0.005000 0.000000
v -0.005000 -0.002000 0.000000
v -0.015000 -0.002000 0.000000
v -0.015469 -0.002037 0.000000
v -0.017121 -0.017121 0.000000
v -0.016763 -0.017427 0.000000
v -0.016362 -0.017673 0.000000
v -0.015927 -0.017853 0.000000
v -0.004531 -0.017963 0.000000
v -0.004073 -0.017853 0.000000
v -0.003638 -0.017673 0.000000
v -0.003237 -0.017427 0.000000
v -0.002879 -0.017121 0.000000
v -0.002573 -0.016763 0.000000
v -0.015469 -0.017963 0.000000
v -0.015000 -0.018000 0.000000
v -0.005000 -0.018000 0.000000
v -0.017963 -0.015469 0.000000
v -0.017853 -0.015927 0.000000
v -0.017427 -0.003237 0.000000
v -0.017673 -0.003638 0.000000
v -0.017853 -0.004073 0.000000
v -0.017673 -0.016362 0.000000
v -0.017427 -0.016763 0.000000
v -0.017963 -0.004531 0.000000
v -0.018000 -0.005000 0.000000
v -0.018000 -0.015000 0.000000
v -0.018000 -0.005000 0.003000
v -0.017963 -0.004531 0.003000
v -0.017853 -0.004073 0.003000
v -0.017673 -0.003638 0.003000
v -0.017427 -0.003237 0.003000
v -0.017121 -0.002879 0.003000
v -0.016763 -0.002573 0.003000
v -0.016362 -0.002327 0.003000
v -0.015927 -0.002147 0.003000
v -0.015469 -0.002037 0.003000
v -0.015000 -0.002000 0.003000
v -0.018000 -0.015000 0.003000
v -0.015000 -0.018000 0.003000
v -0.015469 -0.017963 0.003000
v -0.015927 -0.017853 0.003000
v -0.016362 -0.017673 0.003000
v -0.016763 -0.017427 0.003000
v -0.017121 -0.017121 0.003000
v -0.017427 -0.016763 0.003000
v -0.017673 -0.016362 0.003000
v -0.017853 -0.015927 0.003000
v -0.017963 -0.015469 0.003000
v -0.005000 -0.018000 0.003000
v -0.002000 -0.015000 0.003000
v -0.002037 -0.015469 0.003000
v -0.002147 -0.015927 0.003000
v -0.002327 -0.016362 0.003000
v -0.002573 -0.016763 0.003000
v -0.002879 -0.017121 0.003000
v -0.003237 -0.017427 0.003000
v -0.003638 -0.017673 0.003000
v -0.004073 -0.017853 0.003000
v -0.004531 -0.017963 0.003000
v -0.002000 -0.005000 0.003000
v -0.005000 -0.002000 0.003000
v -0.004531 -0.002037 0.003000
v -0.004073 -0.002147 0.003000
v -0.003638 -0.002327 0.003000
v -0.003237 -0.002573 0.003000
v -0.002879 -0.002879 0.003000
v -0.002573 -0.003237 0.003000
v -0.002327 -0.003638 0.003000
v -0.002147 -0.004073 0.003000
v -0.002037 -0.004531 0.003000
vn 0.5774 0.5774 0.5774
vn 0.5774 -0.5774 0.5774
vn 0.5774 0.5774 -0.5774
vn 0.5773 -0.5773 -0.5774
vn -0.5774 0.5774 0.5774
vn -0.5774 0.5774 -0.5773
vn -0.5774 -0.5774 0.5774
vn -0.5774 -0.5774 -0.5773
vn -0.6801 -0.1077 -0.7252
vn -0.6548 -0.2128 -0.7252
vn -0.2128 -0.6548 -0.7252
vn -0.1077 -0.6801 -0.7252
vn -0.6135 -0.3126 -0.7252
vn -0.5570 -0.4047 -0.7252
vn -0.4869 -0.4869 -0.7252
vn -0.6135 0.3126 -0.7252
vn -0.6548 0.2128 -0.7252
vn -0.4047 -0.5570 -0.7252
vn -0.3126 -0.6135 -0.7252
vn 0.2128 -0.6548 -0.7252
vn 0.3126 -0.6135 -0.7252
vn 0.4047 -0.5570 -0.7252
vn 0.4869 -0.4869 -0.7252
vn -0.6801 0.1077 -0.7252
vn -0.6975 0.0274 -0.7161
vn -0.6975 -0.0274 -0.7161
vn -0.0274 -0.6975 -0.7161
vn 0.0274 -0.6975 -0.7161
vn 0.1077 -0.6801 -0.7252
vn 0.4869 0.4869 -0.7252
vn 0.4047 0.5570 -0.7252
vn 0.3126 0.6135 -0.7252
vn 0.2128 0.6548 -0.7252
vn -0.1077 0.6801 -0.7252
vn -0.2128 0.6548 -0.7252
vn -0.3126 0.6135 -0.7252
vn -0.4047 0.5570 -0.7252
vn -0.4869 0.4869 -0.7252
vn -0.5570 0.4047 -0.7252
vn 0.1077 0.6801 -0.7252
vn 0.0274 0.6975 -0.7161
vn -0.0274 0.6975 -0.7161
vn 0.6801 0.1077 -0.7252
vn 0.6548 0.2128 -0.7252
vn 0.5570 -0.4047 -0.7252
vn 0.6135 -0.3126 -0.7252
vn 0.6548 -0.2128 -0.7252
vn 0.6135 0.3126 -0.7252
vn 0.5570 0.4047 -0.7252
vn 0.6801 -0.1077 -0.7252
vn 0.6975 -0.0274 -0.7161
vn 0.6975 0.0274 -0.7161
vn 0.7152 -0.0281 -0.6984
vn 0.7150 -0.1132 -0.6899
vn 0.6885 -0.2237 -0.6899
vn 0.6450 -0.3287 -0.6899
vn 0.5857 -0.4255 -0.6899
vn 0.5119 -0.5119 -0.6899
vn 0.4255 -0.5857 -0.6899
vn 0.3287 -0.6450 -0.6899
vn 0.2237 -0.6885 -0.6899
vn 0.1132 -0.7150 -0.6899
vn 0.0281 -0.7152 -0.6984
vn 0.7152 0.0281 -0.6984
vn 0.0281 0.7152 -0.6984
vn 0.1132 0.7150 -0.6899
vn 0.2237 0.6885 -0.6899
vn 0.3287 0.6450 -0.6899
vn 0.4255 0.5857 -0.6899
vn 0.5119 0.5119 -0.6899
vn 0.5857 0.4255 -0.6899
vn 0.6450 0.3287 -0.6899
vn 0.6885 0.2237 -0.6899
vn 0.7150 0.1133 -0.6899
vn -0.0281 0.7152 -0.6984
vn -0.7152 0.0281 -0.6984
vn -0.7150 0.1132 -0.6899
vn -0.6885 0.2237 -0.6899
vn -0.6450 0.3287 -0.6899
vn -0.5857 0.4255 -0.6899
vn -0.5119 0.5119 -0.6899
vn -0.4255 0.5857 -0.6899
vn -0.3287 0.6450 -0.6899
vn -0.2237 0.6885 -0.6899
vn -0.1132 0.7150 -0.6899
vn -0.7152 -0.0281 -0.6984
vn -0.0281 -0.7152 -0.6984
vn -0.1132 -0.7150 -0.6899
vn -0.2237 -0.6885 -0.6899
vn -0.3287 -0.6450 -0.6899
vn -0.4255 -0.5857 -0.6899
vn -0.5119 -0.5119 -0.6899
vn -0.5857 -0.4255 -0.6899
vn -0.6450 -0.3287 -0.6899
vn -0.6885 -0.2237 -0.6899
vn -0.7150 -0.1132 -0.6899
s 1
f 1//1 2//2 3//3
f 3//3 2//2 4//4
f 5//5 1//1 6//6
f 6//6 1//1 3//3
f 7//7 5//5 8//8
f 8//8 5//5 6//6
f 2//2 7//7 4//4
f 4//4 7//7 8//8
f 5//5 7//7 1//1
f 1//1 7//7 2//2
f 9//9 10//10 3//3
f 11//11 12//12 3//3
f 10//10 13//13 3//3
f 3//3 13//13 14//14
f 3//3 14//14 15//15
f 4//4 16//16 17//17
f 15//15 18//18 3//3
f 3//3 18//18 19//19
f 3//3 19//19 11//11
f 20//20 21//21 6//6
f 6//6 21//21 22//22
f 6//6 22//22 23//23
f 17//17 24//24 4//4
f 4//4 24//24 25//25
f 4//4 25//25 3//3
f 3//3 25//25 26//26
f 3//3 26//26 9//9
f 12//12 27//27 3//3
f 3//3 27//27 28//28
f 3//3 28//28 6//6
f 6//6 28//28 29//29
f 6//6 29//29 20//20
f 30//30 31//31 8//8
f 8//8 31//31 32//32
f 8//8 32//32 33//33
f 34//34 35//35 4//4
f 4//4 35//35 36//36
f 4//4 36//36 37//37
f 37//37 38//38 4//4
f 4//4 38//38 39//39
f 4//4 39//39 16//16
f 33//33 40//40 8//8
f 8//8 40//40 41//41
f 8//8 41//41 4//4
f 4//4 41//41 42//42
f 4//4 42//42 34//34
f 8//8 43//43 44//44
f 23//23 45//45 6//6
f 6//6 45//45 46//46
f 6//6 46//46 47//47
f 44//44 48//48 8//8
f 8//8 48//48 49//49
f 8//8 49//49 30//30
f 47//47 50//50 6//6
f 6//6 50//50 51//51
f 6//6 51//51 8//8
f 8//8 51//51 52//52
f 8//8 52//52 43//43
f 53//53 51//51 54//54
f 54//54 51//51 50//50
f 54//54 50//50 55//55
f 55//55 50//50 47//47
f 55//55 47//47 56//56
f 56//56 47//47 46//46
f 56//56 46//46 57//57
f 57//57 46//46 45//45
f 57//57 45//45 58//58
f 58//58 45//45 23//23
f 58//58 23//23 59//59
f 59//59 23//23 22//22
f 59//59 22//22 60//60
f 60//60 22//22 21//21
f 60//60 21//21 61//61
f 61//61 21//21 20//20
f 61//61 20//20 62//62
f 62//62 20//20 29//29
f 62//62 29//29 63//63
f 63//63 29//29 28//28
f 53//53 64//64 51//51
f 51//51 64//64 52//52
f 65//65 41//41 66//66
f 66//66 41//41 40//40
f 66//66 40//40 67//67
f 67//67 40//40 33//33
f 67//67 33//33 68//68
f 68//68 33//33 32//32
f 68//68 32//32 69//69
f 69//69 32//32 31//31
f 69//69 31//31 70//70
f 70//70 31//31 30//30
f 70//70 30//30 71//71
f 71//71 30//30 49//49
f 71//71 49//49 72//72
f 72//72 49//49 48//48
f 72//72 48//48 73//73
f 73//73 48//48 44//44
f 73//73 44//44 74//74
f 74//74 44//44 43//43
f 74//74 43//43 64//64
f 64//64 43//43 52//52
f 65//65 75//75 41//41
f 41//41 75//75 42//42
f 76//76 25//25 77//77
f 77//77 25//25 24//24
f 77//77 24//24 78//78
f 78//78 24//24 17//17
f 78//78 17//17 79//79
f 79//79 17//17 16//16
f 79//79 16//16 80//80
f 80//80 16//16 39//39
f 80//80 39//39 81//81
f 81//81 39//39 38//38
f 81//81 38//38 82//82
f 82//82 38//38 37//37
f 82//82 37//37 83//83
f 83//83 37//37 36//36
f 83//83 36//36 84//84
f 84//84 36//36 35//35
f 84//84 35//35 85//85
f 85//85 35//35 34//34
f 85//85 34//34 75//75
f 75//75 34//34 42//42
f 76//76 86//86 25//25
f 25//25 86//86 26//26
f 87//87 27//27 88//88
f 88//88 27//27 12//12
f 88//88 12//12 89//89
f 89//89 12//12 11//11
f 89//89 11//11 90//90
f 90//90 11//11 19//19
f 90//90 19//19 91//91
f 91//91 19//19 18//18
f 91//91 18//18 92//92
f 92//92 18//18 15//15
f 92//92 15//15 93//93
f 93//93 15//15 14//14
f 93//93 14//14 94//94
f 94//94 14//14 13//13
f 94//94 13//13 95//95
f 95//95 13//13 10//10
f 95//95 10//10 96//96
f 96//96 10//10 9//9
f 96//96 9//9 86//86
f 86//86 9//9 26//26
f 87//87 63//63 27//27
f 27//27 63//63 28//28
f 53//53 87//87 64//64
f 64//64 87//87 75//75
f 64//64 75//75 65//65
f 95//95 96//96 87//87
f 87//87 96//96 86//86
f 87//87 86//86 75//75
f 75//75 86//86 76//76
f 75//75 76//76 85//85
f 87//87 91//91 92//92
f 65//65 66//66 64//64
f 64//64 66//66 67//67
f 64//64 67//67 68//68
f 88//88 89//89 87//87
f 87//87 89//89 90//90
f 87//87 90//90 91//91
f 92//92 93//93 87//87
f 87//87 93//93 94//94
f 87//87 94//94 95//95
f 73//73 70//70 72//72
f 72//72 70//70 71//71
f 68//68 69//69 64//64
f 64//64 69//69 70//70
f 64//64 70//70 74//74
f 74//74 70//70 73//73
f 59//59 54//54 55//55
f 54//54 59//59 53//53
f 53//53 59//59 60//60
f 53//53 60//60 61//61
f 61//61 62//62 53//53
f 53//53 62//62 63//63
f 53//53 63//63 87//87
f 78//78 79//79 80//80
f 55//55 56//56 59//59
f 59//59 56//56 57//57
f 59//59 57//57 58//58
f 80//80 81//81 78//78
f 78//78 81//81 82//82
f 78//78 82//82 77//77
f 77//77 82//82 83//83
f 77//77 83//83 76//76
f 76//76 83//83 84//84
f 76//76 84//84 85//85
