# Blender 4.0.0
# www.blender.org
mtllib Teil_3large.mtl
o Teil_3
v -0.200000 -0.200000 0.000000
v -0.200000 0.000000 0.000000
v 0.000000 -0.200000 0.000000
v 0.000000 0.000000 0.000000
v -0.200000 -0.200000 0.200000
v 0.000000 -0.200000 0.200000
v -0.200000 0.000000 0.200000
v 0.000000 0.000000 0.200000
vn -0.5774 -0.5774 -0.5774
vn -0.5774 0.5774 -0.5774
vn 0.5774 -0.5774 -0.5774
vn 0.5774 0.5774 -0.5774
vn -0.5774 -0.5774 0.5774
vn 0.5774 -0.5774 0.5774
vn -0.5774 0.5774 0.5774
vn 0.5774 0.5774 0.5774
s 1
f 1//1 2//2 3//3
f 3//3 2//2 4//4
f 5//5 1//1 6//6
f 6//6 1//1 3//3
f 7//7 5//5 8//8
f 8//8 5//5 6//6
f 2//2 7//7 4//4
f 4//4 7//7 8//8
f 5//5 7//7 1//1
f 1//1 7//7 2//2
f 8//8 6//6 4//4
f 4//4 6//6 3//3
