# Blender 4.0.0
# www.blender.org
mtllib Slide_Long.mtl
o Slide_Long
v 0.025000 8.703793 4.975000
v 0.000000 8.703793 4.975000
v -0.000000 -1.296206 4.975000
v 0.025000 -1.296206 4.975000
v 0.000000 -1.296206 -0.025000
v 0.025000 -1.296206 -0.025000
v 0.000000 8.703794 -0.025000
v 0.025000 8.703794 -0.025000
v -0.000000 8.703794 -0.025000
v -0.000000 8.703794 0.000000
v -0.000000 -1.296206 0.000000
v -0.000000 -1.296206 -0.025000
v -5.000000 -1.296206 0.000000
v -5.000000 -1.296206 -0.024999
v -5.000000 8.703793 0.000001
v -5.000000 8.703793 -0.025000
vn 0.5774 0.5773 0.5773
vn -0.5773 0.5774 0.5774
vn -0.5773 -0.5773 0.5774
vn 0.5773 -0.5774 0.5773
vn -0.5773 -0.5774 -0.5773
vn 0.5774 -0.5774 -0.5773
vn -0.5773 0.5774 -0.5774
vn 0.5774 0.5774 -0.5773
vn 0.5773 0.5774 -0.5774
vn 0.5774 0.5773 0.5774
vn 0.5773 -0.5773 0.5774
vn -0.5773 -0.5774 0.5773
vn -0.5774 -0.5773 -0.5773
vn -0.5774 0.5773 0.5773
vn -0.5773 0.5773 -0.5774
s 1
f 1//1 2//2 3//3
f 1//1 3//3 4//4
f 4//4 3//3 5//5
f 4//4 5//5 6//6
f 6//6 5//5 7//7
f 6//6 7//7 8//8
f 8//8 7//7 2//2
f 8//8 2//2 1//1
f 4//4 6//6 8//8
f 4//4 8//8 1//1
f 5//5 3//3 2//2
f 5//5 2//2 7//7
f 9//9 10//10 11//11
f 9//9 11//11 12//6
f 12//6 11//11 13//12
f 12//6 13//12 14//13
f 14//13 13//12 15//14
f 14//13 15//14 16//15
f 16//15 15//14 10//10
f 16//15 10//10 9//9
f 12//6 14//13 16//15
f 12//6 16//15 9//9
f 13//12 11//11 10//10
f 13//12 10//10 15//14
